<?xml version="1.0" encoding="UTF-8"?>
<svg id="Calque_2" data-name="Calque 2" xmlns="http://www.w3.org/2000/svg" viewBox="0 0 600 400.5">
  <defs>
    <style>
      .cls-1 {
        fill: #dadada;
      }

      .cls-2, .cls-3 {
        fill: #1d1d1b;
      }

      .cls-4, .cls-5, .cls-6, .cls-7, .cls-8, .cls-9 {
        fill: #fff;
      }

      .cls-5 {
        stroke-width: 3px;
      }

      .cls-5, .cls-10, .cls-6, .cls-7, .cls-8, .cls-9, .cls-3, .cls-11, .cls-12, .cls-13 {
        stroke-miterlimit: 10;
      }

      .cls-5, .cls-10, .cls-9, .cls-11 {
        stroke: #fff;
      }

      .cls-10, .cls-11, .cls-13 {
        fill: none;
      }

      .cls-6 {
        stroke-width: .5px;
      }

      .cls-6, .cls-7, .cls-8, .cls-3, .cls-12, .cls-13 {
        stroke: #1d1d1b;
      }

      .cls-7, .cls-3, .cls-11 {
        stroke-width: .25px;
      }

      .cls-14, .cls-12 {
        fill: #ededed;
      }

      .cls-9 {
        stroke-width: 2px;
      }
    </style>
  </defs>
  <g id="illustration">
    <g id="bg">
      <rect class="cls-4" width="600" height="400"/>
    </g>
    <g id="chair">
      <path class="cls-13" d="M253.74,268.31h91.69s10.62-.32,10.62,9.97v12.87s-1.61,6.76-8.04,6.76h-94.27s-13.51.32-13.51-9.33v-11.58s1.61-8.69,13.51-8.69Z"/>
      <polygon class="cls-2" points="249.55 399.14 265.96 297.91 255.34 297.91 244.73 399.14 249.55 399.14"/>
      <polygon class="cls-2" points="345.75 399.14 329.34 297.91 339.96 297.91 350.58 399.14 345.75 399.14"/>
    </g>
    <g id="vase">
      <path class="cls-2" d="M117.64,320.08v13.3s1.72,9.44-7.29,9.44c-7.72,0-23.92,12.49-23.92,24.93s5.04,31.38,24.34,31.38h34.96c10.51,0,21.02-13.63,21.02-29.51s-12.01-26.6-23.38-26.6c-5.79,0-5.58-5.34-5.58-9.22v-13.73h-20.16Z"/>
      <path class="cls-11" d="M366.1,136.19h-7.61c-2.09,0-4.18,2.25-5.23,5.23-1.05,2.98-2.92,9.3-2.92,9.3"/>
      <path class="cls-12" d="M159.33,276.17s-25.34,12.16-24.59,35.11c-.02.54,20.62-3.8,24.59-35.11Z"/>
      <path class="cls-13" d="M130.8,324.86s.97-15.12,16.19-32.39"/>
      <path class="cls-13" d="M149.01,296.82c-1.93-.24-6.42,1.1-6.42,1.1"/>
      <path class="cls-13" d="M141.37,295.05c-.97,2.17-1.36,6.58-1.36,6.58"/>
      <path class="cls-13" d="M144.34,302.05c-2.17.24-6.46,3.04-6.46,3.04"/>
      <path class="cls-12" d="M103.34,291.99s17.36,8.33,16.85,24.06c.01.37-14.13-2.6-16.85-24.06Z"/>
      <path class="cls-13" d="M122.88,325.35s-.66-10.36-11.1-22.19"/>
      <path class="cls-13" d="M110.41,306.13c1.32-.17,4.4.75,4.4.75"/>
      <path class="cls-13" d="M115.65,304.92c.66,1.49.93,4.51.93,4.51"/>
      <path class="cls-13" d="M113.61,309.72c1.49.17,4.42,2.09,4.42,2.09"/>
      <path class="cls-12" d="M135.41,257.98s-22.22,25.88-10.18,51.02c.24.6,21.06-14.29,10.18-51.02Z"/>
      <path class="cls-13" d="M127.48,326s-6.31-17.27,2.19-43.89"/>
      <path class="cls-13" d="M134.02,285.96c-2.26.67-6.59,4.35-6.59,4.35"/>
      <path class="cls-13" d="M124.67,287.72c-.01,2.88,1.7,7.97,1.7,7.97"/>
      <path class="cls-13" d="M131.39,294.04c-2.3,1.33-5.69,6.53-5.69,6.53"/>
    </g>
    <g id="torse">
      <path class="cls-8" d="M288.64,109.69l7.89,4.13c4.87,2.71,10.91,2.8,14.94-.46l4.84-3.94s17.48,2.71,20.56,10.5c0,0,3.76,30.16,0,44.88s-13.57,41.9-11.64,52.16l-70.94-.45,9.23-57.66c-3.88-6.97-7.59-10.61-8.18-18.85-.64-9,4.26-18.74,6.57-20.53s11.33-10,26.73-9.76Z"/>
    </g>
    <g id="left_leg" data-name="left leg">
      <path class="cls-8" d="M377.81,354.94l-1.41,4.83s-5.61,8.28-13.88,5.31c-8.26-2.98-7.72-8.69-9.12-11.02s-2.57-1.82-2.57-1.82v-5.77l26.99,8.48Z"/>
      <path class="cls-2" d="M412.18,394.99h-32.39l-36.14-15.98,6.6-26.78s1.66-.67,3.49,3.3,3.11,8.26,8.15,9.76,10.3.32,14.75-5.52c0,0,10.52,11.79,16.46,18.29,6.97,7.61,8.58,6.97,12.44,7.61,4.31.72,7.29,4.61,6.65,9.33Z"/>
      <path class="cls-2" d="M254.16,211.6c.35-.76,1.08-1.29,1.91-1.4,3.27-.46,13.87-1.41,45.81-1.41,15.38,0,26.34,1.59,30.52,1.66,13.43.21,40.61,3.95,53.25,7.03,12.64,3.08,22.33,10.57,24.27,19.7s2.26,10.43-1.29,25.1l-45.55,2.61h-106.92s-12.15-31.25-2-53.28Z"/>
      <path class="cls-2" d="M384.51,356.9l24.13-94.59s3.97-15.66,1.29-24.77c-2.68-9.12-13.45-17.67-27-12.31-14.91,5.9-19.65,39.65-19.65,39.65l-16.09,80.65,37.32,11.37Z"/>
      <path class="cls-10" d="M363.28,264.88c6.6-11.69,14.26-15.71,14.26-15.71"/>
      <path class="cls-10" d="M381.35,257.53s-8.2,1.77-18.07,7.99"/>
      <path class="cls-8" d="M410.37,400s1.4-2.01,1.31-5.01c-.09-3-31.03-1.19-31.03-1.19l-35.58-17.56-1.42,3.77,33.52,19.99h33.2Z"/>
    </g>
    <g id="right_leg" data-name="right leg">
      <path class="cls-2" d="M251.82,218.13s-7.34,11.2-7.1,23.21c.24,12.01,8.39,26.97,18.69,26.97h76.55v-32.21s0-17.97-27.35-17.83c-26.89.14-60.79-.15-60.79-.15Z"/>
      <path class="cls-2" d="M294.3,352.23h45.66l-.28-111.92c-.21-2.88-.39-13.01-5.84-15.68-7.15-3.5-16.1-5.79-26.3-3.26-14.32,3.54-16.44,46.17-16.44,46.17l3.21,84.69Z"/>
      <path class="cls-10" d="M269.56,218.09s20.99.04,43.92.04,26.81,13.68,27.13,17.91l.05,7.18"/>
      <path class="cls-8" d="M303,359.33v-7.1h27.19v6.45s-1.93,9.65-11.9,9.65-8.96-4.74-12.87-8.05c-.86-.73-2.41-.96-2.41-.96Z"/>
      <path class="cls-2" d="M299.14,393.81v-30.78s.64-3.7,3.86-3.7,4.33,3.46,5.59,4.98,2.99,4.03,9.69,4.03,10.78-4.88,11.9-9.65c0,0,14.64,19.46,21.82,23.33,7.19,3.86,14.48,5.9,17.37,6.86s3.75,3,3.65,4.93h-73.89Z"/>
      <path class="cls-8" d="M299.71,400v-6.19h72.74s.71,2.82-.87,6.19h-71.87Z"/>
    </g>
    <g id="hand">
      <path class="cls-8" d="M339.65,182.23s-10.72-11.74-14.64-11.74-12.01.91-19.09.86-12.23-.32-12.23-.32v16.78l11.53-4.45s1.39-.75,2.41,0,7.02,1.18,11.85-2.63l4.77,4.34,15.39-2.83Z"/>
      <path class="cls-13" d="M318.82,174.32s3.86.38,8.58,10.3"/>
      <path class="cls-13" d="M323.39,172.12s6.1,3.63,8.14,11.87"/>
      <path class="cls-13" d="M330.41,176.73s3.43,1.94,4.83,6.23"/>
    </g>
    <g id="right_arm" data-name="right arm">
      <path class="cls-8" d="M234.14,189.05s-7.07-1.08-7.07-8.69.96-7.16,3.53-11.8c2.72-4.91,26.2-46.48,31.62-48.88,0,0,12.44-5.67,12.44,12.24,0,10.4-5.79,16.62-9.77,23.61,0,0-11.22,21.88-16.21,26.86-4.99,4.99-4.64,6.34-14.54,6.66Z"/>
      <path class="cls-8" d="M295.45,189.37h-60s-8.36-1.29-8.36-9.01,5.79-9.6,11.15-11.85,6.44-3.02,15.07-1.98c1.89.23,3.15.25,5.51.3l36.63,1.31v21.24Z"/>
      <path class="cls-4" d="M269.6,120.45s8.53,6.92.75,23.86l2.47,1.29s3.77-7.69,3.94-12.15c.28-7.2-3.21-12.82-5.23-15.2l-1.93,2.2Z"/>
      <polygon class="cls-2" points="264.13 166.45 265.03 156.36 259.3 166.45 263.69 166.63 264.13 166.45"/>
      <path class="cls-9" d="M245.91,166.45s-6.11.22-14.26,5.2c-3.25,1.98-2.82,4.98-2.8,8.66"/>
    </g>
    <g id="left_arm" data-name="left arm">
      <path class="cls-8" d="M349.73,162.03l-3.1-21.95c-.51-3.63-1.68-7.14-3.44-10.35-2.01-3.67-4.63-8.32-5.92-10.06,0,0,1.92,25.74.92,34.91.36-.08-3.63,18.58-4.09,22.1,0,.38,7.82,6.29,7.82,6.29l7.82-20.93Z"/>
      <line class="cls-5" x1="337.27" y1="124.18" x2="337.91" y2="141.23"/>
      <path class="cls-4" d="M336.23,119.27l1.97,2.86.2,3.39s-1.6.72-1.72.83-2.04,2.71-2.38-.7-.14-3.96-.14-3.96c0,0,.78-.96,1.03-1.19s1.04-1.24,1.04-1.24Z"/>
    </g>
    <g id="neck">
      <path class="cls-8" d="M315.75,103.57v5.84s-4.08,5.78-10.73,6.08-11.35-4.76-15.75-5.82v-17.26h26.48v11.15Z"/>
    </g>
    <g id="desk">
      <polygon class="cls-13" points="185.04 399.14 177.64 399.14 201.77 202.56 216.89 202.56 185.04 399.14"/>
      <polygon class="cls-2" points="201.15 207.62 214.76 215.66 216.89 202.56 201.77 202.56 201.15 207.62"/>
      <polygon class="cls-13" points="470.52 399.14 477.92 399.14 453.79 202.56 438.67 202.56 470.52 399.14"/>
      <polygon class="cls-2" points="454.41 207.62 440.79 215.66 438.67 202.56 453.79 202.56 454.41 207.62"/>
      <rect class="cls-2" x="154.15" y="189.37" width="331.7" height="13.19"/>
    </g>
    <g id="laptop">
      <path class="cls-2" d="M356.85,134.69h68.85s5.95.16,4.5,5.15-13.51,49.53-13.51,49.53h-104.08s0-7.87,8.69-7.87,16.89,0,16.89,0l12.87-41.5s2.9-5.31,5.79-5.31Z"/>
      <ellipse class="cls-4" cx="385.75" cy="163" rx="9.81" ry="6.27"/>
      <line class="cls-4" x1="338.19" y1="181.5" x2="336.9" y2="186.48"/>
      <rect class="cls-4" x="319.05" y="185.06" width="4.34" height="1.93"/>
      <rect class="cls-4" x="326.29" y="185.06" width="4.61" height="1.93"/>
    </g>
    <g id="mug">
      <rect class="cls-6" x="167.92" y="187.81" width="31.15" height="1.56"/>
      <path class="cls-2" d="M173.42,166.07h20.11s2.17-.08,1.93,2.36c-.31,3.12-1.37,14.89-1.69,17.13s-.56,2.25-2.49,2.25h-14.88c-2.9,0-2.33-.96-2.57-2.25s-1.56-14.34-2.09-17.45c-.32-1.9,1.29-2.04,1.69-2.04Z"/>
      <path class="cls-2" d="M172.97,172.29s-.91-1.82-4.02-1.82-4.02,4.18-2.95,7.56,8.04,4.45,8.36,7.4v-2.88c0-1.33-5.54-2.96-6.33-4.59-1.03-2.15-.68-5.55,1.01-5.53,2.09.02,3.61,1.57,3.93,2.69v-2.84Z"/>
      <path class="cls-13" d="M185.21,163.94s6.07-8.09,0-14.16,1.35-15.12,1.35-15.12"/>
      <path class="cls-13" d="M181.16,162.2s1.25-4.34-1.73-6.55-1.35-7.13-1.35-7.13"/>
    </g>
    <g id="pens">
      <rect class="cls-6" x="453.61" y="186.55" width="22.74" height="2.82"/>
      <path class="cls-7" d="M472.39,152.01l-1.07,13.37h-2.14l1.34-13.51c.11-.78,1.88-.58,1.88.15Z"/>
      <path class="cls-2" d="M470.32,154.82c.62-.29,1.2-.24,1.74.14l.25-3c-.25-.59-1.31-.7-1.72-.12l-.27,2.98Z"/>
      <line class="cls-3" x1="471.32" y1="154.49" x2="470.41" y2="165.09"/>
      <path class="cls-7" d="M464.72,153.26l.23,13.41-2.13.21.03-13.58c.03-.78,1.81-.76,1.88-.04Z"/>
      <path class="cls-2" d="M462.94,156.25c.59-.34,1.17-.36,1.74-.03l-.04-3.01c-.31-.56-1.37-.57-1.72.05l.02,2.99Z"/>
      <line class="cls-3" x1="463.9" y1="155.83" x2="464.02" y2="166.47"/>
      <path class="cls-3" d="M460.43,156.43l1.19,13.36-2.11.36-.95-13.55c-.03-.78,1.75-.89,1.87-.17Z"/>
      <path class="cls-4" d="M458.87,159.54c.56-.39,1.14-.44,1.74-.16l-.26-3c-.35-.54-1.41-.47-1.71.17l.24,2.98Z"/>
      <line class="cls-11" x1="459.79" y1="159.05" x2="460.69" y2="169.65"/>
      <path class="cls-3" d="M467.47,152.81l1.19,13.36-2.11.36-.95-13.55c-.03-.78,1.75-.89,1.87-.17Z"/>
      <path class="cls-4" d="M465.91,155.93c.56-.39,1.14-.44,1.74-.16l-.26-3c-.35-.54-1.41-.47-1.71.17l.24,2.98Z"/>
      <line class="cls-11" x1="466.83" y1="155.44" x2="467.73" y2="166.04"/>
      <path class="cls-2" d="M458.14,163.81h12.6c1.79,0,2.18,1.31,2.18,2.82s-.95,14.85-1.24,17.45c-.27,2.44-.54,2.47-1.79,2.47h-10.57c-1.32,0-1.63-.64-1.79-2.57s-1.01-15.76-1.09-18.12,1.71-2.04,1.71-2.04Z"/>
    </g>
    <g id="head">
      <path class="cls-4" d="M326.47,60.51s-2.71-16.76-19.12-17.61c-14.24-.74-26.6,5.25-29.06,20.59-1.72,10.72,4.32,18.42,6.09,24.77s7.91,9.89,12.28,11.9,10.8,5.1,18.37,3.8,10.86-10.31,10.86-13.13.59-30.32.59-30.32Z"/>
      <path class="cls-13" d="M296.66,100.83c4.5,2.25,11.26,4.83,18.55,3.65,3.76-.61,11.26-10.9,11.26-15.23,0-3.5-1.05-12.62-.73-16.85.45-5.87.73-10.92.73-10.92"/>
      <ellipse class="cls-2" cx="321.05" cy="79.04" rx="1.42" ry="2.7"/>
      <ellipse class="cls-2" cx="305.91" cy="79.04" rx="1.42" ry="2.7"/>
      <path class="cls-13" d="M312.5,82.77s2.47-.54,3.91,0-2.04,3.86-2.95,4.61"/>
      <path class="cls-13" d="M314.37,93.01c-4.57.62-8.2-1.67-8.2-1.67"/>
      <path class="cls-2" d="M325.91,61.47c-1.01-2.56-4.01,1.14-9.15,1.14-4.87,0-11.34-3.79-17.15-2.19-.54.15-.92.65-.88,1.21l.4,6.86c.03.5-.15.99-.5,1.36-1.06,1.11-3.32,3.95-3.63,8.21-.04.52-.53.88-1.04.8l-1.14-.19-3.01,17.4-1.1-.54s-13.04-14.52-13.04-30.85c0-21.85,20.59-24.38,26.19-24.34,9.18.07,24.54,2.76,25.16,21.14h-1.12Z"/>
      <path class="cls-4" d="M292.84,78.67s-1.45-2.09-4.18-1.85-5.52.59-5.58,6.43,3.43,6.97,10.24,10.78l3.97-5.95-.91-5.74-3.54-3.67Z"/>
      <path class="cls-13" d="M293.32,78.54s-1.05-2.2-4.42-2.2-7.13,1.72-6.03,9.36c.64,4.47,10.46,8.77,10.46,8.77"/>
      <ellipse class="cls-13" cx="322.39" cy="79.04" rx="5.29" ry="7.64"/>
      <ellipse class="cls-13" cx="306.16" cy="79.04" rx="6.34" ry="8.17"/>
      <line class="cls-13" x1="299.83" y1="78.4" x2="292.89" y2="77.93"/>
      <path class="cls-13" d="M312.5,79.61s.96-.86,2.35-.86,2.24.86,2.24.86"/>
      <path class="cls-13" d="M286.76,81.03s4.22.32,6.13,5.2"/>
      <path class="cls-13" d="M288.53,86.23s-.18-2.84,1.65-3.7"/>
      <path class="cls-1" d="M293.78,79.18l2.2.43s1.3,6.73,2.25,9.89c1.59,5.28,8.29,8.42,13.33,8.42,13.69,0,14.39-12.04,14.39-12.04,0,0,.17,3.57-.01,4.58-.42,2.29-4.96,11.39-10.2,13.5s-16.74-1.46-18.95-3.36-3-4.02-3.01-6.14,0-15.29,0-15.29Z"/>
      <path class="cls-14" d="M303.22,92.78s-1.02.88-1.61.44-.97-.66-.43-1.32.92-5.02,7.22-3.26,9.4.83,10.26.7,1.63,1.75,1.45,4-1.98.52-1.98,0,.54-1.89-.16-2.17-2.36.42-4.67.18-5.79-.95-6.7-1.26-2.2-.66-3.38,2.69Z"/>
    </g>
  </g>
</svg>