<?xml version="1.0" encoding="UTF-8"?>
<svg xmlns="http://www.w3.org/2000/svg" viewBox="0 0 213.25 234.71">
  <defs>
    <style>
      .cls-1, .cls-2, .cls-3, .cls-4, .cls-5, .cls-6, .cls-7, .cls-8, .cls-9, .cls-10, .cls-11, .cls-12, .cls-13, .cls-14, .cls-15 {
        stroke-width: 0px;
      }

      .cls-1, .cls-14 {
        fill: #0a0929;
      }

      .cls-2 {
        fill: #f98764;
      }

      .cls-3 {
        fill: #f98e69;
      }

      .cls-16 {
        isolation: isolate;
      }

      .cls-5 {
        fill: #017504;
      }

      .cls-6 {
        fill: #f9a17b;
      }

      .cls-7 {
        fill: #333;
      }

      .cls-8 {
        fill: #f98063;
      }

      .cls-9 {
        fill: #fff;
      }

      .cls-10 {
        fill: #019804;
      }

      .cls-11 {
        fill: #dbf2ff;
      }

      .cls-12 {
        fill: #0a1828;
      }

      .cls-13 {
        fill: #f99671;
      }

      .cls-14 {
        mix-blend-mode: multiply;
        opacity: .07;
      }

      .cls-15 {
        fill: #ff0923;
      }
    </style>
  </defs>
  <g class="cls-16">
    <g id="Layer_2" data-name="Layer 2">
      <g id="OBJECTS">
        <g>
          <g>
            <path class="cls-2" d="m118.26,51.99c0,3.51,2.84,6.35,6.35,6.35s6.35-2.84,6.35-6.35-2.84-6.35-6.35-6.35-6.35,2.84-6.35,6.35Z"/>
            <path class="cls-2" d="m81.53,51.99c0,3.51,2.84,6.35,6.35,6.35s6.35-2.84,6.35-6.35-2.84-6.35-6.35-6.35-6.35,2.84-6.35,6.35Z"/>
            <path class="cls-6" d="m137.72,141.52s8.11,16.79,14.58,20.67c6.46,3.88,35.94,12.7,35.94,12.7,0,0,11.26.9,16.62-.47,5.36-1.37,6.39-5.76,7.69-9.13,1.29-3.36.52-4.32,0-6.95-.52-2.62-7.69-4.03-7.69-4.03,0,0-.33,2.51,2.26,4.03,2.59,1.52,1.55,3.33-.26,4.62-1.81,1.29-6.27,1.29-6.27,1.29,0,0-.81-1.92,1.23-3.62,2.04-1.7.57-3.06.57-3.06,0,0-2.72.57-4.42,3.29-1.7,2.72-6.23,4.76-6.23,4.76,0,0-26.63-11.79-30.37-17.11-3.74-5.33-8.16-15.98-8.16-15.98l-15.48,8.98Z"/>
            <polyline class="cls-3" points="153.2 132.54 141.12 147.91 135.44 139.63"/>
            <path class="cls-6" d="m75.53,141.52s-8.11,16.79-14.58,20.67c-6.46,3.88-35.94,12.7-35.94,12.7,0,0-11.26.9-16.62-.47-5.36-1.37-6.39-5.76-7.69-9.13-1.29-3.36-.52-4.32,0-6.95.52-2.62,7.69-4.03,7.69-4.03,0,0,.33,2.51-2.26,4.03-2.59,1.52-1.55,3.33.26,4.62,1.81,1.29,6.27,1.29,6.27,1.29,0,0,.81-1.92-1.23-3.62-2.04-1.7-.57-3.06-.57-3.06,0,0,2.72.57,4.42,3.29,1.7,2.72,6.23,4.76,6.23,4.76,0,0,26.63-11.79,30.37-17.11,3.74-5.33,8.16-15.98,8.16-15.98l15.48,8.98Z"/>
            <polyline class="cls-3" points="59.13 133.11 72.11 147.94 76.89 140.2"/>
            <polygon class="cls-5" points="139.58 108.71 147.22 136.7 139.77 140.52 139.58 108.71"/>
            <path class="cls-12" d="m162.85,172.92l4.05,3.04-8.51.9s2.33-3.62,4.46-3.94Z"/>
            <polyline class="cls-13" points="184.64 174.42 141.62 178.17 108.86 191.11 113.59 213.56 122.83 217.4 156.11 204.45"/>
            <polyline class="cls-8" points="23 174.42 66.02 178.17 98.78 191.11 94.05 213.56 84.8 217.4 51.52 204.45"/>
            <path class="cls-9" d="m99.29,85.44c-14.6,0-26.43,11.83-26.43,26.43v68.15c0,25.57,24.09,39.13,31.51,42.71,1.36.66,2.93.66,4.29,0,7.42-3.57,31.51-17.14,31.51-42.71v-68.15c0-14.6-11.83-26.43-26.43-26.43h-14.46Z"/>
            <path class="cls-12" d="m53.33,173.22s-2.17.84-3.44,3.55l9.26,1.04-4.63-4.22"/>
            <path class="cls-7" d="m71.1,178.63h69.63l22.12-5.71s-9.86,7.21-9.65,19.05l-48.91,30.73-41.15-24.55s-.76-16.42-9.8-24.93l17.77,5.41Z"/>
            <polygon class="cls-2" points="116.11 89.63 106.53 106.09 96.94 89.63 96.94 70.45 116.11 70.45 116.11 89.63"/>
            <path class="cls-10" d="m106.53,106.09l-9.59-19.81v-6.52s-3.83,2.15-4.91,6.69l4.83,20.34,4.11-6.4,5.55,5.69Z"/>
            <path class="cls-10" d="m106.47,106.09l9.59-19.81v-6.52s3.83,2.15,4.91,6.69l-4.83,20.34-4.11-6.4-5.55,5.69Z"/>
            <path class="cls-6" d="m87.01,29.57v24.66c0,17.52,19.52,25.33,19.52,25.33,0,0,19.52-7.8,19.52-25.33v-24.66h-39.04Z"/>
            <g>
              <path class="cls-1" d="m106.47,71.07c5.31,0,9.61-4.3,9.61-9.61h-19.22c0,5.31,4.3,9.61,9.61,9.61Z"/>
              <path class="cls-15" d="m102.44,70.17c1.23.57,2.59.9,4.04.9s2.81-.33,4.04-.9c-1.1-.89-2.51-1.43-4.04-1.43s-2.93.54-4.04,1.43Z"/>
              <path class="cls-9" d="m98.16,66.26h16.63c.82-1.41,1.3-3.05,1.3-4.81h-19.22c0,1.75.48,3.39,1.3,4.81Z"/>
              <path class="cls-11" d="m115.86,63.38c.13-.63.22-1.27.22-1.93h-19.22c0,.69.09,1.36.23,2,2.47-1.06,10.05-3.66,18.77-.08Z"/>
            </g>
            <path class="cls-4" d="m128.41,46.9c3.34-8.07.47-18.07.47-18.07,6.33-8.11,1.25-15.35,1.25-15.35-2.86,3.46-6.32,2.39-6.32,2.39,2.25-11.47-7.16-15.15-7.16-15.15-2.93,8.22-8.96,9.87-8.96,9.87.33-9.69-7.66-10.59-7.66-10.59,1.15,6.2-1.27,10.74-10.33,14.43-9.07,3.7-6.68,15.14-6.68,15.14-3.1,11.92.51,17.81.51,17.81,1.05-1.29,3.49-1.74,3.49-1.74v5.41l1.87-8.12,3.08-6.44v-2.27h3.94l-1.66,3.26c6.57-.43,12.3-3.26,12.3-3.26l-4.09,4.98c11.21,1.19,18.62-4.98,18.62-4.98v2.98l3.56,6.8,1.43,7.98v-6.13s1.64.42,2.36,1.04Z"/>
            <path class="cls-10" d="m87.12,88.43s-20.64,6.62-32.55,42.71l20.26,10.38,12.29-32.47"/>
            <polygon class="cls-5" points="73.06 108.71 65.42 136.7 72.87 140.52 73.06 108.71"/>
            <path class="cls-10" d="m125.43,88.43s20.64,6.62,32.55,42.71l-20.26,10.38-12.29-32.47"/>
          </g>
          <path class="cls-13" d="m103.27,220.5s-20.07-9.35-40.14-22.35c-20.07-13-36.24-28.34-49.26-22.8-11.52,4.9-10.49,20.07,11.63,30.56,22.12,10.49,72.98,25.54,75.94,25.77,2.96.23,4.56,4.1,9.58,2.74,5.02-1.37,18.24.36,21.44.29,3.19-.06,4.1-1.66,5.47-4.62,1.37-2.96,4.1-6.84,5.47-9.58,1.37-2.74-.91-3.42-6.39-3.42s-26,2.74-33.75,3.42Z"/>
          <path class="cls-6" d="m103.93,220.5s20.07-9.35,40.14-22.35c20.07-13,36.24-28.34,49.26-22.8,11.52,4.9,10.49,20.07-11.63,30.56-22.12,10.49-72.98,25.54-75.94,25.77-2.96.23-4.56,4.1-9.58,2.74-5.02-1.37-18.24.36-21.44.29-3.19-.06-4.1-1.66-5.47-4.62-1.37-2.96-4.1-6.84-5.47-9.58-1.37-2.74.91-3.42,6.39-3.42s26,2.74,33.75,3.42Z"/>
          <path class="cls-14" d="m172.92,178.91l-68.16,34.66-64.73-31.2s46.48,32.91,63.91,38.14c0,0,33.58-15.32,68.98-41.6Z"/>
        </g>
      </g>
    </g>
  </g>
</svg>