<?xml version="1.0" encoding="UTF-8"?>
<svg id="Calque_2" data-name="Calque 2" xmlns="http://www.w3.org/2000/svg" xmlns:xlink="http://www.w3.org/1999/xlink" viewBox="0 0 301.27 597.83">
  <defs>
    <style>
      .cls-1 {
        fill: url(#Dégradé_sans_nom_270);
      }

      .cls-2 {
        fill: url(#Dégradé_sans_nom_270-2);
      }

      .cls-3, .cls-4 {
        fill: #1d1d1b;
      }

      .cls-5, .cls-6 {
        fill: #fff;
      }

      .cls-7 {
        fill: url(#Dégradé_sans_nom_239);
      }

      .cls-8 {
        fill: url(#Dégradé_sans_nom_49);
      }

      .cls-9 {
        stroke-width: 2px;
      }

      .cls-9, .cls-6, .cls-4, .cls-10 {
        stroke: #1d1d1b;
        stroke-miterlimit: 10;
      }

      .cls-9, .cls-10 {
        fill: none;
      }

      .cls-11 {
        fill: url(#Dégradé_sans_nom_270-3);
      }
    </style>
    <linearGradient id="Dégradé_sans_nom_270" data-name="Dégradé sans nom 270" x1="159.93" y1="543.53" x2="166.41" y2="547.72" gradientTransform="translate(-25.45 18.36) rotate(-5.89)" gradientUnits="userSpaceOnUse">
      <stop offset="0" stop-color="#dadada"/>
      <stop offset=".16" stop-color="#d3d3d3"/>
      <stop offset=".37" stop-color="#c2c2c2"/>
      <stop offset=".52" stop-color="#b2b2b2"/>
      <stop offset="1" stop-color="#878787"/>
    </linearGradient>
    <linearGradient id="Dégradé_sans_nom_239" data-name="Dégradé sans nom 239" x1="13.51" y1="477.91" x2="155.53" y2="327.14" gradientTransform="translate(-25.45 18.36) rotate(-5.89)" gradientUnits="userSpaceOnUse">
      <stop offset=".04" stop-color="#000" stop-opacity="0"/>
      <stop offset=".33" stop-color="#000" stop-opacity=".6"/>
      <stop offset=".4" stop-color="#000" stop-opacity=".8"/>
      <stop offset=".81" stop-color="#000"/>
      <stop offset="1" stop-color="#000" stop-opacity=".9"/>
    </linearGradient>
    <linearGradient id="Dégradé_sans_nom_270-2" data-name="Dégradé sans nom 270" x1="126.85" y1="443.34" x2="47.94" y2="587.59" xlink:href="#Dégradé_sans_nom_270"/>
    <linearGradient id="Dégradé_sans_nom_270-3" data-name="Dégradé sans nom 270" x1="72.35" y1="583.96" x2="120.52" y2="552.15" xlink:href="#Dégradé_sans_nom_270"/>
    <linearGradient id="Dégradé_sans_nom_49" data-name="Dégradé sans nom 49" x1="184.7" y1="32.46" x2="58.92" y2="377.71" gradientTransform="translate(-25.45 18.36) rotate(-5.89)" gradientUnits="userSpaceOnUse">
      <stop offset="0" stop-color="#fff" stop-opacity="0"/>
      <stop offset=".15" stop-color="#b8d777" stop-opacity=".37"/>
      <stop offset=".24" stop-color="#8dbe22" stop-opacity=".6"/>
      <stop offset=".38" stop-color="#6ea422" stop-opacity=".67"/>
      <stop offset=".65" stop-color="#3b7b22" stop-opacity=".8"/>
      <stop offset=".72" stop-color="#2d651b" stop-opacity=".82"/>
      <stop offset=".9" stop-color="#0c340b" stop-opacity=".88"/>
      <stop offset="1" stop-color="#002105" stop-opacity=".9"/>
    </linearGradient>
  </defs>
  <g id="Calque_11" data-name="Calque 11">
    <g id="Calque_1-2" data-name="Calque 1">
      <path class="cls-6" d="M226.83,408.42s-7.33,27.06-10.2,60.83c-2.68,31.49-12.94,54.42-25.46,84.4-11.67,27.94-23.09,39.42-42.85,42.88-30.11,5.26-67.06-43.26-91.08-66.4-5.94-5.72-4-5.71-8.17-21.08-.64-2.34-16.25-13.77-17.26-16.56-21.04-57.88-4.11-151.21-4.11-151.21,0,0,39.54,9.91,95.15,33.35,44.75,18.86,103.99,33.8,103.99,33.8Z"/>
    </g>
    <g id="Calque_36" data-name="Calque 36">
      <path class="cls-1" d="M189.86,546.05l.26,1.84c.13.89.72,1.37,1.1.89l4.5-5.59c.26-.32,1.37,1.64,1.53,1.18.48-1.38-.76-3.29-1.07-3.7-.34-.49-.66-.84-.98-.61l-4.62,3.3c-.58.41-.87,1.52-.7,2.68Z"/>
    </g>
    <g id="Calque_10" data-name="Calque 10">
      <path class="cls-7" d="M104.33,408.15c-9.16-.46-19.81,1.11-23.47,8.43-2.84,5.69-11.92,22.68-15.83,29.99-1.01,1.89-3.35,2.6-5.24,1.59l-11.08-5.91c-1.17-.62-2.14-1.56-2.81-2.7l-.74-1.25c-3.43-8.85-11.25-13.41-11.25-13.41-4.07-1.83-6.25-1.62-9.21.62l-4.21,2.83c-.54-27.53,4.76-66.11,4.76-66.11,2.35-23.41,6.7-35.9,15.75-35.79,0,0,175.84,12.57,183.8,66.16,1.45,9.74,7.4,35.8-36.88,37.98-19.04.94-73.26-21.91-83.58-22.43Z"/>
    </g>
    <g id="Calque_6" data-name="Calque 6">
      <path class="cls-6" d="M48.57,449.33s-7.57-35.11-26.34-22.5c-16.31,10.96,1.39,55.15,9.78,70.95,3.23,6.08,9.87,6.35,10.87,11.37"/>
      <path class="cls-6" d="M37.99,471.34c-.42-9.23-11.6-20-11.6-20"/>
      <path class="cls-6" d="M31.14,476.82c-2.49-8.75,2.72-17.24,2.72-17.24"/>
    </g>
    <g id="Calque_35" data-name="Calque 35">
      <path class="cls-3" d="M173.6,470.86s-20.75-8-43.38,1.92c0,0,21.79-17,44.22-6.99,4.41,1.97-.84,5.06-.84,5.06Z"/>
      <path class="cls-3" d="M208.92,467.13s9.03-7.04,13.83-6.51c0,0-10.6-1.49-14.51,1.01-3.15,2.01.68,5.5.68,5.5Z"/>
    </g>
    <g id="Calque_7" data-name="Calque 7">
      <path class="cls-2" d="M55.56,447.77l4.83,2.78c2.13,1.21,3.42,3.49,3.39,5.94-.17,11.91-9.96,32.18.67,44.32,14.42,16.47,30.49,22.17,54.9,39.11,13.12,9.1,16.26,34.35,50.39,28.71,18.51-3.06,17.1-6.71,35.11-51.71l2.44.43c-3.41,7.87-15.3,39.82-18.3,48.19-5.51,15.36-24.38,33.91-46.1,32.18-19.86-1.59-34.76-8.76-64.51-32.91-23.02-18.68-33.26-37.94-36.88-49.04-2.26-6.95,6.56-49.04,9.49-63.42.46-2.24,2.58-5.7,4.57-4.57Z"/>
    </g>
    <g id="Calque_8" data-name="Calque 8">
      <path class="cls-11" d="M183.5,546.37l-.36,1.67c-.17.79-.75,1.4-1.51,1.58-4.2.98-18.11,1.14-35.46-1.8-5.16-.87-17.81,10.48-19.3,9.48-1.89-1.27,11.49-12.04,18.97-13.47l.65-.3c.33-.15.68-.22,1.05-.18,3.54.37,23.45,2.29,33.17.16,1.66-.36,3.16,1.15,2.79,2.86Z"/>
    </g>
    <g id="Calque_25" data-name="Calque 25">
      <path class="cls-9" d="M179.34,502s16.56-7.12,25.25-.03"/>
    </g>
    <g id="Calque_3" data-name="Calque 3">
      <ellipse class="cls-4" cx="216.53" cy="492.12" rx="29.26" ry="17.67" transform="translate(-298.68 645.85) rotate(-82.86)"/>
    </g>
    <g id="Calque_27" data-name="Calque 27">
      <polygon class="cls-5" points="246.83 435.08 254.26 432.18 199.73 511.59 195.9 508.58 246.83 435.08"/>
    </g>
    <g id="Calque_2-2" data-name="Calque 2">
      <ellipse class="cls-4" cx="159.44" cy="498.22" rx="32.33" ry="24.72" transform="translate(-350.49 614.94) rotate(-85.15)"/>
    </g>
    <g id="Calque_4" data-name="Calque 4">
      <path class="cls-6" d="M193.76,499.46c.27,18.97,17.17,20.84,12.03,30.4-5.13,9.56-11.58,1.22-15.64,11.82"/>
    </g>
    <g id="Calque_26" data-name="Calque 26">
      <polygon class="cls-5" points="162.55 468.11 168.64 466.91 132.83 522.49 129 519.48 162.55 468.11"/>
    </g>
    <g id="Calque_9" data-name="Calque 9">
      <path class="cls-10" d="M145.29,558.67c9.86,1.82,20.47-.31,25.63-1.64,2.35-.61,4.75-.94,7.18-.98l4.24-.07"/>
    </g>
    <g id="Calque_13" data-name="Calque 13">
      <path class="cls-3" d="M228,405.84c-8.63,39.96-69,25.28-108.87,11.56-58.34-20.08-126.93-74.56-72.87-95.56,36.17-14.05,92.8,4.51,122.37,19.5,49.51,25.11,62.28,51.05,59.37,64.51Z"/>
    </g>
    <g id="Calque_24" data-name="Calque 24">
      <path class="cls-8" d="M293.18,45.33c9.68,19.78,7.98,40.15,7.98,40.15-1.21,14.49-1.96,23.95-27.17,61.45-27.56,41-20.59,57.23-10.72,91.18,9.86,33.95-18.27,59.11-32.02,90.2-20.07,45.4,4.09,59.96-4.6,84.64-8.81,25.02-55.96,27.23-135.31-6.57-23.55-10.03-63.86-37.3-65.2-63.13-1.79-34.43,18.41-54.65,10.53-93.02-7.01-34.14-26.97-31.77-34.35-65.87-8.71-40.24,10.42-55.66,3.28-91.48C-4.29,43.31,1.83,20.43,9.79,0c1.18,1.2,283.39,45.33,283.39,45.33Z"/>
    </g>
  </g>
</svg>